<?xml version="1.0" standalone="no"?>
<!DOCTYPE svg PUBLIC "-//W3C//DTD SVG 20010904//EN"
 "http://www.w3.org/TR/2001/REC-SVG-20010904/DTD/svg10.dtd">
<svg version="1.0" xmlns="http://www.w3.org/2000/svg"
 width="475.000000pt" height="475.000000pt" viewBox="0 0 475.000000 475.000000"
 preserveAspectRatio="xMidYMid meet">
<metadata>
Created by potrace 1.11, written by Peter Selinger 2001-2013
</metadata>
<g transform="translate(0.000000,475.000000) scale(0.100000,-0.100000)"
fill="#000000" stroke="none">
<path d="M1883 4653 c-77 -77 -173 -197 -173 -219 0 -4 -6 -15 -14 -23 -21
-24 -53 -141 -50 -189 1 -23 -2 -45 -7 -48 -5 -3 -6 -10 -3 -16 4 -6 9 -23 10
-37 7 -52 39 -166 72 -261 3 -8 6 -17 7 -20 0 -3 4 -14 8 -25 10 -33 19 -78
21 -117 1 -21 5 -40 8 -44 4 -3 3 -17 -2 -30 -6 -14 -6 -26 1 -29 5 -4 7 -11
4 -16 -3 -5 -13 -34 -21 -65 -8 -30 -31 -86 -51 -124 -43 -80 -54 -80 -95 -3
-32 59 -59 161 -61 232 0 10 -4 8 -14 -5 -7 -10 -13 -21 -13 -25 0 -4 -5 -20
-12 -36 -6 -15 -12 -30 -13 -33 -34 -112 -47 -179 -49 -265 -2 -33 0 -64 3
-70 3 -5 6 -23 7 -39 3 -35 41 -131 66 -168 10 -14 18 -29 18 -33 0 -10 146
-154 188 -185 19 -14 39 -30 45 -35 32 -28 85 -52 107 -49 36 6 136 52 200 92
81 52 201 176 244 255 79 141 105 253 101 428 -1 65 -5 121 -8 126 -5 9 -15
49 -22 93 -1 8 -5 23 -9 32 -4 9 -8 22 -10 30 -1 7 -4 18 -7 23 -6 10 -22 66
-22 75 0 3 -16 38 -36 78 l-36 73 0 -83 c-1 -102 -14 -174 -41 -227 -8 -14
-14 -30 -14 -36 0 -5 -11 -23 -25 -39 l-25 -29 -1 34 c-2 150 -35 225 -194
444 -83 115 -114 199 -110 301 2 67 34 214 47 214 4 0 8 7 8 17 0 14 48 121
60 133 6 6 11 30 6 30 -2 0 -44 -39 -93 -87z"/>
<path d="M1380 2530 c-38 -4 -45 -8 -45 -27 0 -31 6 -34 82 -38 81 -3 103 -8
145 -32 40 -22 54 -38 75 -83 14 -31 16 -130 17 -910 1 -961 0 -989 -41 -1044
-38 -51 -109 -73 -240 -75 -39 -1 -42 -3 -39 -23 3 -13 5 -26 5 -30 1 -5 239
-8 529 -8 l529 0 1 30 c1 24 -3 30 -21 30 -198 4 -289 58 -296 176 -1 10 -162
114 -176 114 -2 0 -36 15 -75 34 -38 19 -88 37 -110 41 -22 4 -42 10 -45 15
-4 6 32 24 65 32 3 1 34 14 70 30 36 16 67 30 70 30 6 1 21 10 96 57 83 51
102 72 99 109 -1 17 2 32 7 32 5 0 6 6 1 13 -12 19 -10 561 2 569 7 5 7 8 0 8
-10 0 -12 578 -2 706 5 58 28 114 48 114 5 0 9 6 9 13 0 11 34 30 80 44 8 3
47 6 86 7 82 3 91 7 92 41 0 23 -4 25 -42 25 -487 4 -941 4 -976 0z"/>
<path d="M2664 2531 c-7 -8 -4 -61 4 -61 4 -1 41 -2 82 -4 148 -7 212 -60 227
-188 10 -95 9 -182 -3 -258 -20 -122 -24 -142 -36 -164 -6 -11 -11 -23 -10
-26 13 -38 -173 -403 -243 -476 -5 -6 -23 -29 -40 -50 -123 -159 -283 -293
-441 -370 -51 -25 -100 -47 -108 -48 -8 -1 -30 -15 -48 -32 -62 -55 -176 -118
-235 -130 -12 -2 -32 -8 -45 -13 -18 -8 -19 -10 -5 -10 25 -1 181 -62 185 -73
2 -4 8 -8 13 -8 5 0 33 -16 62 -35 60 -40 94 -44 209 -20 113 24 277 89 299
118 3 5 9 8 13 8 8 -2 56 29 74 46 8 7 23 18 34 24 33 18 68 49 181 161 l107
108 0 237 0 238 33 55 c45 77 127 250 127 269 0 5 5 22 12 38 6 15 12 30 13
33 16 53 28 98 28 108 0 6 3 12 7 12 3 0 6 8 7 18 3 43 8 62 15 62 4 0 8 -8 9
-17 1 -21 2 -25 28 -118 25 -91 40 -130 71 -184 30 -52 46 -61 53 -29 34 151
48 234 52 316 3 53 8 132 10 174 9 163 69 221 227 222 38 1 68 4 68 8 0 4 6 5
13 2 10 -4 12 3 9 26 -3 25 -9 30 -31 30 -209 4 -1024 4 -1027 1z"/>
<path d="M3176 1979 c-3 -8 -8 -25 -10 -39 -22 -112 -86 -283 -138 -365 -14
-22 -25 -44 -26 -49 0 -5 -5 -12 -10 -15 -7 -4 -12 -191 -14 -526 -3 -359 -7
-528 -15 -546 -37 -85 -103 -113 -280 -118 -19 -1 -23 -7 -23 -31 l0 -30 530
0 c292 0 530 3 531 8 6 58 13 54 -81 54 -90 0 -180 41 -215 100 -19 32 -20 56
-23 556 l-4 523 -48 79 c-57 91 -118 208 -123 236 -2 10 -7 27 -10 37 -14 36
-18 53 -24 92 -6 45 -10 54 -17 34z"/>
</g>
</svg>
